# xmcd
#
# Track frame offsets:
#	183
#	30133
#	39653
#	58788
#	72855
#	108500
#	120245
#	133860
#	172145
#	190780
#	220018
#
# Disc length: 3366 seconds
#
# Revision: 1
# Processed by: cddbd v1.5.2PL0 Copyright (c) Steve Scherf et al.
# Submitted via: EZCDAudioConverter 7.1.6.1
#
DISCID=970d240b
DTITLE=Gary Moore - Blues for Greeny
DYEAR=1995
DGENRE=Pop/Blues
TTITLE0=If You Be My Baby - (1995)
TTITLE1=Long Grey Mare - (1995)
TTITLE2=Merry Go Round - (1995)
TTITLE3=I Loved Another Woman - (1995)
TTITLE4=Need Your Love So Bad - (1995)
TTITLE5=The Same Way - (1995)
TTITLE6=The Supernatural - (1995)
TTITLE7=Driftin' - (1995)
TTITLE8=Showbiz Blues - (1995)
TTITLE9=Love That Burns - (1995)
TTITLE10=Looking For Somebody - (1995)
EXTD=
EXTT0=
EXTT1=
EXTT2=
EXTT3=
EXTT4=
EXTT5=
EXTT6=
EXTT7=
EXTT8=
EXTT9=
EXTT10=
PLAYORDER=
